<svg id="Layer_1" data-name="Layer 1" xmlns="http://www.w3.org/2000/svg" viewBox="0 0 150.14 76.1"><defs><style>.cls-1{fill:#0b232e;}.cls-2{fill:#2c9dd4;}</style></defs><path class="cls-1" d="M24.36,28H27v2.28H27a7.28,7.28,0,0,1,5.62-2.68,7.87,7.87,0,0,1,8.21,8.22A7.91,7.91,0,0,1,33.05,44a6.78,6.78,0,0,1-6-3.18H27V53.14H24.36Zm8.15,13.63a5.46,5.46,0,0,0,5.55-5.81A5.46,5.46,0,0,0,32.51,30C29.14,30,27,32.5,27,35.77S29.14,41.58,32.51,41.58Z"/><path class="cls-1" d="M42.62,31.66c0-1.43-.13-2.67-.13-3.71H45c0,.84.06,1.71.06,2.58h.07a5.67,5.67,0,0,1,5.21-3,3.18,3.18,0,0,1,1.07.17l-.17,2.64a5,5,0,0,0-1.4-.2c-3.17,0-4.58,2.24-4.58,5.81v7.61h-2.6Z"/><path class="cls-1" d="M79.54,30.16H74.93V38c0,2,0,3.6,2.33,3.6a5.18,5.18,0,0,0,2.31-.53l.1,2.37a7.93,7.93,0,0,1-3,.57c-3.71,0-4.31-2-4.31-5.25V30.16H68.91V28h3.41V23.51h2.61V28h4.61Z"/><path class="cls-1" d="M95,40.74A8,8,0,0,1,88,44c-4.9,0-7.91-3.68-7.91-8.22a7.83,7.83,0,0,1,8-8.22c4.41,0,7.42,3,7.42,8.18v.84H82.89a5.24,5.24,0,0,0,5.11,5,5.83,5.83,0,0,0,5-2.37Zm-2.24-6.37A4.34,4.34,0,0,0,88,30a4.84,4.84,0,0,0-5.11,4.41Z"/><path class="cls-1" d="M111.32,39.88c0,1.43.14,2.67.14,3.7H109c0-.83-.07-1.7-.07-2.57h-.07a5.66,5.66,0,0,1-5.21,3c-4.1,0-5.94-2.61-5.94-6.38V28h2.6v9.39c0,2.61,1.14,4.24,3.58,4.24,3.37,0,4.84-2.44,4.84-6V28h2.6Z"/><path class="cls-1" d="M115.53,39.48a4.86,4.86,0,0,0,4,2.1c1.63,0,3.44-.7,3.44-2.4s-1.67-2.11-3.34-2.48c-3-.66-5.51-1.3-5.51-4.54,0-3,2.94-4.61,5.84-4.61a5.69,5.69,0,0,1,5.31,2.84l-2.17,1.44A3.73,3.73,0,0,0,119.8,30c-1.43,0-3.07.7-3.07,2.17,0,1.3,1.87,1.87,3.94,2.27,2.78.53,5.11,1.54,5.11,4.67,0,3.55-3.14,4.92-6.24,4.92-2.64,0-4.55-.71-6.08-2.91Z"/><path class="cls-2" d="M66.22,38.1A6.28,6.28,0,0,0,64,30.62l.38-3.29L62.07,29.7a6.07,6.07,0,0,0-1.7-.24,6.35,6.35,0,0,0-5.51,3.24l-1.24-.14.9.88a6.31,6.31,0,0,0,2.78,7.83l-.14,1.25.87-.9a6.23,6.23,0,0,0,2.33.45,6.36,6.36,0,0,0,5.52-3.24l1.24.15Zm-.81.06a5.58,5.58,0,1,1-2.65-7.43A5.58,5.58,0,0,1,65.41,38.16Z"/><path class="cls-1" d="M68.07,38.63a8.21,8.21,0,0,0-2.24-9l.81-7.06-5,5.09a8.22,8.22,0,0,0-8.39,3.94l-2.24-.26,1.62,1.57a8.21,8.21,0,0,0,3.53,9.94l-.26,2.23,1.57-1.61a8.23,8.23,0,0,0,9.94-3.53l2.23.26Zm-2.19.2a6.36,6.36,0,0,1-5.52,3.24A6.23,6.23,0,0,1,58,41.62l-.87.9.14-1.25a6.31,6.31,0,0,1-2.78-7.83l-.9-.88,1.24.14a6.35,6.35,0,0,1,5.51-3.24,6.07,6.07,0,0,1,1.7.24l2.31-2.37L64,30.62a6.28,6.28,0,0,1,2.22,7.48l.9.88Z"/></svg>