<svg version="1.1" id="Area_without_line" xmlns="http://www.w3.org/2000/svg" xmlns:xlink="http://www.w3.org/1999/xlink" x="0px"
	 y="0px" viewBox="0 0 340.2 340.2" style="enable-background:new 0 0 340.2 340.2;" xml:space="preserve">
<style type="text/css">
	.st0{fill:#E41F13;}
	.st1{fill:#FFFFFF;}
</style>
<g>
	<g>
		<g>
			<path d="M171.8,192.2h26.4c9.1,0,18.1,4.1,18.1,14.6c0,5.6-2.7,10.9-8.1,13v0.1c5.5,1.3,7.1,7.5,7.5,12.4
				c0.1,2.2,0.4,9.8,2.2,11.7h-13.3c-1.2-1.7-1.4-6.8-1.5-8.3c-0.4-5.2-1.2-10.6-7.5-10.6h-10.2v18.8h-13.5V192.2z M185.3,214.6
				h11.3c4.1,0,6.2-2.2,6.2-6.1c0-3.8-3-5.6-6.8-5.6h-10.7V214.6z"/>
			<path d="M222.7,192.2h41.2V203h-27.8v9.1h25.4v10.4h-25.4v9.9h28.5v11.6h-42V192.2z"/>
			<path d="M270.9,192.2h22.3c15.9,0,25.4,9.6,25.4,25.7c0,17-9.6,26.1-25.4,26.1h-22.3V192.2z M284.4,232.3h6.4
				c10.2-0.2,14.3-4.2,14.3-14.6c0-9.4-5.1-14-14.3-14h-6.4V232.3z"/>
			<path d="M171.8,249.3h13.5v40.2h24.1V301h-37.6V249.3z"/>
			<path d="M213.2,249.3h13.5V301h-13.5V249.3z"/>
			<path d="M243.6,283.6c0.3,6.1,4.1,8,9.8,8c4.1,0,8.3-1.5,8.3-5.3c0-4.6-7.4-5.4-14.9-7.5c-7.4-2.1-15.2-5.4-15.2-14.9
				c0-11.3,11.4-15.7,21.1-15.7c10.3,0,20.7,5,20.7,16.7H260c0.2-4.7-4.2-6.2-8.3-6.2c-2.9,0-6.5,1-6.5,4.4c0,4,7.5,4.7,15,6.8
				c7.5,2.1,15,5.6,15,14.9c0,13.1-11.2,17.3-22.5,17.3c-11.9,0-22.4-5.2-22.5-18.5H243.6z"/>
			<path d="M317.8,260.9h-15.4V301h-13.5v-40.2h-15.4v-11.6h44.4V260.9z"/>
		</g>
		<g>
			<g>
				<path class="st0" d="M271.9,71.1c-10.4,10-12.6,24.6-5,32.5c7.6,7.9,22.3,6.2,32.6-3.9c10.4-10,12.6-24.6,5-32.5
					C296.9,59.3,282.2,61,271.9,71.1z"/>
				<path class="st0" d="M263.5,119.9c-10.4,10-12.6,24.6-5,32.5c7.6,7.9,22.2,6.2,32.6-3.9c10.4-10,12.6-24.6,5-32.5
					C288.5,108.1,273.9,109.8,263.5,119.9z"/>
				<path class="st0" d="M192.2,48.5c-10.4,10-12.6,24.6-5,32.5c7.6,7.9,22.2,6.2,32.6-3.9c10.4-10,12.6-24.6,5-32.5
					C217.2,36.7,202.5,38.4,192.2,48.5z"/>
				<path class="st0" d="M241.3,40.8c-10.4,10-12.6,24.6-5,32.5c7.6,7.9,22.3,6.2,32.6-3.9c10.4-10,12.6-24.6,5-32.5
					C266.3,29,251.7,30.8,241.3,40.8z"/>
			</g>
			<ellipse class="st0" cx="209.9" cy="129.6" rx="40.9" ry="40.9"/>
		</g>
		<path class="st0" d="M155.8,105.2c0,36-29.2,65.2-65.2,65.2c-36,0-65.2-29.2-65.2-65.2c0-36,29.2-65.2,65.2-65.2h65.3L155.8,105.2
			z"/>
		<path class="st0" d="M156.5,248.1c0,36.2-29.4,65.6-65.6,65.6c-36.2,0-65.6-29.4-65.6-65.6c0-36.2,29.4-65.6,65.6-65.6
			C127.2,182.5,156.5,211.9,156.5,248.1z"/>
		<g>
			<g>
				<path class="st1" d="M64.6,241.8V255h-2.9v-13.2H64.6z"/>
				<path class="st1" d="M76.5,254c-1,0.9-2.4,1.3-4.1,1.3c-1.8,0-3.2-0.4-4.2-1.3c-1-0.9-1.5-2.2-1.5-4v-8.2h2.9v8.2
					c0,0.4,0,0.7,0.1,1.1c0.1,0.3,0.2,0.7,0.4,0.9c0.2,0.3,0.5,0.5,0.8,0.6c0.4,0.2,0.8,0.2,1.4,0.2c1,0,1.8-0.2,2.1-0.7
					c0.4-0.5,0.6-1.2,0.6-2.2v-8.2H78v8.2C78,251.8,77.5,253.1,76.5,254z"/>
				<path class="st1" d="M88.6,245.3c-0.2-0.3-0.4-0.5-0.6-0.7c-0.3-0.2-0.6-0.4-0.9-0.5c-0.3-0.1-0.7-0.2-1-0.2
					c-0.7,0-1.2,0.1-1.7,0.4c-0.5,0.3-0.8,0.6-1.1,1c-0.3,0.4-0.5,0.9-0.6,1.5c-0.1,0.5-0.2,1.1-0.2,1.7c0,0.6,0.1,1.1,0.2,1.6
					s0.3,1,0.6,1.4c0.3,0.4,0.7,0.8,1.1,1c0.5,0.3,1,0.4,1.7,0.4c0.9,0,1.6-0.3,2.1-0.8c0.5-0.5,0.8-1.3,0.9-2.1h2.8
					c-0.1,0.8-0.3,1.6-0.6,2.2c-0.3,0.7-0.7,1.2-1.2,1.7c-0.5,0.5-1.1,0.8-1.8,1.1c-0.7,0.2-1.4,0.4-2.2,0.4c-1,0-1.9-0.2-2.7-0.5
					c-0.8-0.4-1.5-0.8-2-1.5c-0.6-0.6-1-1.3-1.3-2.2c-0.3-0.8-0.4-1.7-0.4-2.7c0-1,0.1-1.9,0.4-2.7c0.3-0.8,0.7-1.6,1.3-2.2
					c0.6-0.6,1.2-1.1,2-1.5c0.8-0.4,1.7-0.5,2.7-0.5c0.7,0,1.4,0.1,2.1,0.3c0.6,0.2,1.2,0.5,1.7,0.9c0.5,0.4,0.9,0.9,1.3,1.5
					s0.5,1.3,0.6,2h-2.8C88.9,245.9,88.8,245.6,88.6,245.3z"/>
				<path class="st1" d="M96.3,241.8l5.5,8.9h0v-8.9h2.7V255h-2.9l-5.5-8.8h0v8.8h-2.7v-13.2H96.3z"/>
			</g>
			<g>
				<path class="st1" d="M89.4,262.2c-0.2,0.3-0.5,0.5-0.7,0.8c-3.8,3.8-9.1,6.2-14.9,6.2c-5.8,0-11.1-2.4-14.9-6.2
					c-3.8-3.8-6.2-9.1-6.2-14.9c0-5.8,2.4-11.1,6.2-14.9c3.8-3.8,9.1-6.2,14.9-6.2c5.8,0,11.1,2.4,14.9,6.2c0.4,0.4,0.9,0.9,1.3,1.4
					h8.6c-4.8-8.8-14.1-14.7-24.8-14.7c-15.6,0-28.3,12.7-28.3,28.3c0,15.6,12.7,28.3,28.3,28.3c10.5,0,19.6-5.7,24.5-14.1H89.4z"/>
			</g>
		</g>
	</g>
	<g>
		<path d="M323.9,203.3c-4.1,0-7-3.1-7-7.1c0-4.3,3.2-7.1,7-7.1c3.7,0,6.9,2.8,6.9,7.1C330.8,200.4,327.6,203.3,323.9,203.3z
			 M323.9,190.3c-3.1,0-5.5,2.4-5.5,5.9c0,3.2,2.1,5.9,5.5,5.9c3,0,5.4-2.4,5.4-5.9C329.3,192.7,326.9,190.3,323.9,190.3z
			 M327.5,197.5c-0.3,1.8-1.7,2.9-3.4,2.9c-2.4,0-4-1.8-4-4.3c0-2.3,1.5-4.1,4-4.1c1.7,0,3.1,1,3.4,2.9h-1.3c-0.2-1-1-1.6-2.1-1.6
			c-1.6,0-2.5,1.3-2.5,2.8c0,1.7,1,3.1,2.5,3.1c1.1,0,1.9-0.7,2-1.7H327.5z"/>
	</g>
</g>
</svg>
