<?xml version="1.0" standalone="no"?>
<!DOCTYPE svg PUBLIC "-//W3C//DTD SVG 1.1//EN" "http://www.w3.org/Graphics/SVG/1.1/DTD/svg11.dtd">
<svg xmlns="http://www.w3.org/2000/svg">
<metadata>Copyright (C) 2019 by original authors @ fontello.com</metadata>
<defs>
<font id="fontello" horiz-adv-x="1000" >
<font-face font-family="fontello" font-weight="400" font-stretch="normal" units-per-em="1000" ascent="850" descent="-150" />
<missing-glyph horiz-adv-x="1000" />
<glyph glyph-name="flower" unicode="&#xe800;" d="M483-89c-82 180-63 168-50 209 6 41 11 50 10 80 0 9 2 20 16 14 31-33 69-54 111-64 34-9 68-7 99 11 19 12 41 28 40 52-1 21-29 18-45 26-48 21-99 34-141 65 60-9 120-15 180-9 57 5 111 21 151 68 25 30 45 65 22 102-22 38-62 46-105 39-16-3-32-9-51-15 5 55 1 107-39 149-47 50-100 50-147 1-39-40-59-91-80-153-6 33-10 57-15 80-4 30-14 59-33 84-51 70-116 70-158-4-13-21-14-21-33-10-35 23-75 35-109 0s-16-75 3-110c50-92 131-147 244-180-43-8-73-13-102-21-16-5-31-16-35-34-6-22 14-28 28-37 51-30 89-90 164-75 16 2 10-25 10-38-20-78-47-23 58-291" horiz-adv-x="1000" />

<glyph glyph-name="clipboard" unicode="&#xe801;" d="M527 660v22c0 25-20 46-45 46h-72c6 12 9 25 9 38 0 46-37 84-81 84s-81-38-81-84c0-14 3-28 9-38h-59c-23 0-44-21-44-46v-22h-97c-37 0-66-31-66-67v-674c0-38 29-69 66-69h559c37 0 66 31 66 69v674c0 38-29 67-66 67h-98z m-236 106c0 28 22 50 49 50 26 0 48-22 48-50 0-16-7-29-17-38h-62c-10 9-18 22-18 38z m334-807c0-24-18-43-41-43h-477c-22 0-41 19-41 43v591c0 24 18 43 41 43h58c0-19 14-34 32-34h297c18 0 33 15 33 34h57c22 0 41-19 41-43v-591z m-440 541c33 0 59-26 59-60s-26-61-59-61-58 27-58 61 26 60 58 60z m337-29h-197c-18 0-32-17-32-36 0-19 14-35 32-35h197c18 0 32 16 32 35 0 19-14 36-32 36z m-337-142c33 0 59-26 59-60s-26-60-59-60-58 26-58 60 26 60 58 60z m337-19h-197c-18 0-32-16-32-35s14-35 32-35h197c18 0 32 16 32 35s-14 35-32 35z m-337-160c33 0 59-26 59-60s-26-61-59-61-58 27-58 61 26 60 58 60z m337-21h-197c-18 0-32-16-32-35s14-35 32-35h197c18 0 32 16 32 35 0 21-14 35-32 35z" horiz-adv-x="691" />

<glyph glyph-name="download" unicode="&#xe802;" d="M704 307l0-126-351 0 0 126-67 0 0-163c0-20 15-37 34-37l418 0c18 0 33 17 33 37l0 163-67 0z m-168 5l-101 117c0 0-15 14 1 14 17 0 58 0 58 0 0 0 0 9 0 23 0 42 0 117 0 147 0 0-3 8 10 8 14 0 71 0 81 0 9 0 9-7 9-7 0-29 0-107 0-147 0-12 0-21 0-21 0 0 32 0 53 0 20 0 5-14 5-14 0 0-87-110-99-121-8-9-17 1-17 1z" horiz-adv-x="1114" />

<glyph glyph-name="dashboard" unicode="&#xe803;" d="M1039 678c-16 16-41 19-60 6-71-48-426-291-464-329-55-55-55-145 0-200 28-28 64-42 100-42 37 0 73 14 101 42 38 38 280 393 328 463 13 19 11 44-5 60z m-390-456c-19-19-49-19-67 0-18 18-18 48 0 66 15 15 116 87 239 173-86-124-157-225-172-239z m-415-230l-62-29c-46 79-70 168-70 258 0 66 12 130 35 188l72-33c7-3 15-5 22-5 19 0 37 11 46 28 12 25 1 54-24 66l-71 33c88 139 241 236 417 252l0-74c0-28 23-50 51-50 28 0 51 22 51 50l0 74c61-6 119-21 175-45 25-11 55 0 67 25 11 24 0 53-25 65-85 36-175 55-268 55-173 0-337-65-460-184-122-119-190-277-190-445 0-124 38-245 110-349 10-14 26-22 42-22 8 0 16 2 23 5l104 49c25 12 36 41 23 66-12 24-42 34-68 22z m971 462c-12 24-43 34-69 23-26-10-37-38-26-62 33-66 50-136 50-209 0-87-25-172-72-248l-67 29c-25 11-56 1-69-23-12-23-1-51 25-62l109-47c7-4 14-5 22-5 17 0 33 7 43 21 73 100 112 216 112 335 0 86-19 170-58 248z" horiz-adv-x="1263" />

<glyph glyph-name="download-folder" unicode="&#xe804;" d="M952 421l-316 0-57-58c-3-4-7-7-11-10l351 0 0-225-34 123c-4 15-17 25-31 25l-691 0 0 189 187 0-53 55c-4 4-7 8-10 13l-156 0c-18 0-33-16-33-34l0-223-65 0c-11 0-20-5-26-13-7-9-9-20-6-30l94-341c7-25 29-42 54-42l779 0c31 0 56 26 56 58l0 479c0 19-14 34-32 34z m-463-23c5-5 12-8 19-8 7 0 14 3 19 8l148 159c7 8 10 21 6 31-5 11-14 18-25 18l-65 0 0 206c0 21-15 38-35 38l-96 0c-20 0-35-17-35-38l0-206-65 0c-11 0-20-7-25-18-4-10-1-23 6-31l148-159z" horiz-adv-x="984" />

<glyph glyph-name="alert" unicode="&#xe805;" d="M500 850c-276 0-500-224-500-500 0-276 224-500 500-500 276 0 500 224 500 500 0 276-224 500-500 500z m0-819c-39 0-66 30-66 69 0 40 28 69 66 69 40 0 66-29 66-69 0-39-26-69-66-69z m26 264c-10-34-41-35-52 0-12 40-55 191-55 289 0 130 162 130 162 0 0-99-45-254-55-289z" horiz-adv-x="1000" />

<glyph glyph-name="burger" unicode="&#xe806;" d="M0-150l1500 0 0 167-1500 0 0-167z m0 417l1500 0 0 166-1500 0 0-166z m0 583l0-167 1500 0 0 167-1500 0z" horiz-adv-x="1500" />

<glyph glyph-name="envelope" unicode="&#xe807;" d="M980 575h-50c0 35-30 65-65 65h-720c-35 0-65-30-65-65h-50c0 65 50 115 115 115h720c65 0 115-50 115-115z m5-540v540h-50v-540c0-35-30-65-65-65h-725c-35 0-65 30-65 65v540h-50v-540c0-65 50-115 115-115h725c65 0 115 50 115 115z m-10 520l-30 40-435-305-440 305-30-40 470-325 465 325z" horiz-adv-x="1000" />

<glyph glyph-name="close" unicode="&#xe808;" d="M619 350l356 357c33 32 33 86 0 118-32 33-86 33-118 0l-357-356-356 356c-33 33-87 33-119 0-33-32-33-86 0-118l356-357-356-357c-33-32-33-86 0-118 32-33 86-33 119 0l356 356 357-356c32-33 86-33 118 0 33 32 33 86 0 118l-356 357z" horiz-adv-x="1000" />

<glyph glyph-name="file" unicode="&#xe809;" d="M624 383c-8 133-114 239-247 248l0 0-18 0-17 0 0 0c-133-9-239-115-248-248l0 0 0-17 0-18 0 0c9-133 115-239 248-247l0-1 17 0 18 0 0 1c133 8 239 114 247 247l1 0 0 18 0 17-1 0z m-364 190c-17-22-31-51-42-83l-53 0c23 36 56 65 95 83z m-113-119l62 0c-5-22-8-46-9-71l-70 0c2 25 8 49 17 71z m-17-106l70 0c1-25 4-48 9-71l-62 0c-9 22-15 46-17 71z m35-106l53 0c11-33 25-61 42-84-39 19-72 48-95 84z m177-104c-37 9-68 49-87 104l87 0 0-104z m0 139l-97 0c-5 22-8 46-9 71l106 0 0-71z m0 106l-106 0c1 25 4 49 9 71l97 0 0-71z m0 107l-87 0c19 55 50 94 87 104l0-104z m211 0l-53 0c-10 32-24 61-41 83 39-18 71-47 94-83z m-176 104c37-10 68-49 87-104l-87 0 0 104z m0-140l97 0c5-22 8-46 9-71l-106 0 0 71z m0-106l106 0c-1-25-4-49-9-71l-97 0 0 71z m0-210l0 104 87 0c-19-55-50-95-87-104z m82 20c17 23 31 51 41 84l53 0c-23-36-55-65-94-84z m113 119l-62 0c4 23 7 46 8 71l71 0c-2-25-8-49-17-71z m-54 106c-1 25-4 49-8 71l62 0c9-22 15-46 17-71l-71 0z m196 278l-183 184c-3 3-7 5-11 5l-473 0c-26 0-47-21-47-47l0-906c0-26 21-47 47-47l625 0c26 0 47 21 47 47l0 753c0 4-2 8-5 11z m-63-742l-583 0 0 862 430 0 3 0 0-104c0-26 21-47 47-47l103 0 0-711z" horiz-adv-x="719" />

<glyph glyph-name="globe" unicode="&#xe80a;" d="M492 850c-271 0-492-224-492-500 0-276 221-500 492-500 271 0 492 224 492 500 0 276-221 500-492 500z m264-191c1-1 3-2 4-2 1 0 2 0 3 0 3 2 5 6 4 9-2 5-5 11-8 16 0 0 1 0 1 0 0 0 1 1 1 1 10-19 14-28 16-33 0 0 0 0 0 0-2 1-4 1-6 0-1-1-3-3-3-5-2 2-5 6-10 11-1 1-1 1-2 2 0 0 0 0 0 1z m-562 27c2 0 3 1 4 1 1 1 2 1 3 2 0-2 1-3 2-4 1-1 2-2 3-2 0-1-1-1-1-2-2-2-2-4-2-6 1-2 2-4 4-5l1 0c-61-56-89-82-104-97 24 42 54 80 90 113z m-148-336c0 31 4 62 10 93 1-1 2-2 4-2l5 0c0 0 0 0 0 0-2-10-4-18-6-27 0-1 0-3 0-3 1-13 3-31 5-44 1-2 2-4 3-5 61-39 93-110 100-125-19-31-26-57-20-77 6-24 25-36 40-44 2-7 4-13 5-19 1-1 1-2 2-2 0-1 38-40 74-53 11-54 42-96 92-124 0-1 0-1 1-1-186 58-315 231-315 433z m842-184c-3-10-6-20-9-29-11-17-20-36-28-54l-1-2c-84-115-218-184-358-184-19 0-39 1-58 4 0 1-1 2-2 3l-2 3c0 0-1 1-2 1l-8 4c-5 8-5 8-4 13 0 1 0 1 1 1 0 0 0 0 0 0l5 0c1 0 4 1 6 3 1 2 1 5 0 7 0 0-1 1-1 1 1 0 1 0 2 0 6 2 12 5 18 8 2 0 3 0 5-1 2 0 4 0 6 1l7 6c2 1 3 3 3 5 0 19 0 22-2 30 49 31 55 35 47 57 29 33 30 35 31 58 1 2 1 6 1 8 0 4-3 7-7 7-3 0-71 4-112 44-1 1-3 2-5 1-6 0-16-1-31-11l-2 1 5 6c2 2 2 5 1 7-18 35-23 39-40 41-21 3-21 3-27 23 0 1-1 2-1 3l-6 7c-18 17-38 25-60 33-1 1-2 1-4 1l-11-1c-12 6-17 10-27 16-3 2-6 2-9 0-6-7-10-9-12-9-7 0-17 7-34 19-3 8-14 22-29 32l-1 4c0 7 1 13 2 20 7 8 8 11 11 21 0 2 0 4-1 6-1 2-3 3-5 3-11 1-18-4-27-13-1 0-3 1-4 2-2 7-5 23-3 41 6 3 9 7 20 29 22 0 22-1 36-11 2-1 5-1 7 0 2 1 4 2 6 4l2-6c1-3 3-5 6-5 3 0 5 0 7 0 0-8 1-16 1-24 1-8 1-15 1-22 0-3 1-5 4-7 1 0 2 0 3 0-1-1-2-1-4-1-4 9-11 12-16 12-6 0-10 0-15 1-3 0-5-1-7-3-1-2-1-5 0-8 4-5 10-12 30-18l0 0c7-12 10-13 27-18 0 0 1 0 2 0 1 0 3 1 4 2l5 4c1 2 2 4 2 6 0 3-2 4-4 5-1 1-2 2-6 7-5 7-8 12-15 12 0 0-1-1-2-1 1 0 2 1 3 1l22 18c2 2 3 6 1 9l-5 12c1 4 1 6 3 10 1 0 1 0 2 1 4 3 9 5 14 7 5 2 9 4 14 7 6 0 11-1 17-2 2-1 4 0 6 2 19 23 20 24 24 29 32 14 33 15 118 38 3 1 5 4 5 7-1 3-3 6-6 7-3 0-5 1-7 2l7 7c1 2 2 4 1 7 0 0 0 0 0 0 3 0 7 0 11 0 0-1 1-3 2-3 8-7 13-12 13-14 1-2 3-3 5-4 1 0 1 0 2 0 1 0 3 1 5 3l10 11c1 2 2 4 1 7-1 2-3 4-5 4l-3 1c5 4 13 11 27 23 3 2 3 5 2 8-1 2-4 4-6 4-5 0-9-1-12-2l0 0c1 2 1 5 0 6l-6 11c2 3 2 4 5 10 1 1 1 3 1 5-1 2-2 3-4 4-9 5-17 6-28 4-12 21-14 23-24 24-2 1-4 0-5-1-2-1-3-3-3-5 0-2 0-4 0-7l-7 1c-2 0-5-1-6-2-9-11-19-21-29-30-7-8-15-15-22-23-5 11-9 30-10 42l30 15c27 18 38 25 45 25 2 0 5-1 8-3 0-1-1-2-1-4 0-3 3-6 6-6 5-1 11-1 16-2l6-11c1-2 3-4 6-4 3 0 5 2 6 4 8 17 13 18 14 18 2 0 7-5 8-7 2-1 3-2 5-2 2 1 4 1 5 3 3 3 9 9 10 18l0 2c0 3 0 5-2 6-1 1-3 2-4 2 0 2 0 6 0 7 0 2-1 5-3 6-5 4-5 5-5 6 1 4-2 7-6 8 0 0-2 0-7 2-4 2-7 3-9 3l-2 4c-1 2-2 4-4 4-2 1-4 0-6-1 0 0 0 1 0 1-2 2-5 2-7 1-4-1-6-2-8-3 0 2 0 4 0 6-1 2-1 3-2 4 0 1 1 1 2 2 1 1 2 2 2 4 0 3 0 6 0 8 0 2-1 5-3 6 0 0 0 0 0 0 1 1 2 1 4 3 4 3 4 5 6 13 0 3-2 5-4 6-2 2-5 2-7 0-16-9-16-9-19-10-3-1-5-5-4-8 1-4 4-6 7-5 3 0 5 0 6 1 1-1 1-1 2-1-3-1-5-3-5-3-2 0-3-2-4-3 0-1-1-2-1-3-2 1-3 2-5 2 1 2 1 4 0 6-1 2-3 4-6 4-1 0-3 0-5 0 0 0 0 0 0 0 0 0-1 0-1 0-2 2-5 3-8 2-8-3-11-5-14-7-3-1-4-4-3-7l1-2c0-3 2-5 4-5 0-1 1-2 1-3-1 0-2 0-3-1l-2 2c0 5-1 7-6 11-2 2-5 3-8 1-1-1-3-3-3-5 0-1-1-2-1-2-2-2-4-5-4-10 0-2 0-3 0-5 0-1 1-2 0-2 0 0 0 0 0 0-2-1-5-2-8-3-1-1-3-2-3-4-1-2-1-4 0-5 2-4 5-6 8-8l-4-2c0 1-1 1-1 1-2 0-3 1-4 1l-1 5c0 2-2 4-3 5-2 1-3 1-4 1-1 1-2 1-2 1-1 0-1 0-2 1l1 2c0 1 0 3-1 5 0 2-2 3-3 4-4 1-8 2-11 3-2 1-4 1-5 0-4-1-6-2-8-2l3 4c1 2 1 4 1 7-1 2-3 3-5 4-4 1-8 2-15 1-1 0-1 1-1 2 1 2 1 4 0 6 0 1-1 2-2 3 0 2 0 4-1 6-2 3-6 3-9 2-5-3-6-4-15-8-1 0-1 0-1 0 71 46 152 70 237 70 80 0 158-22 227-64-1 0-2 0-2 0-3 0-9 2-19 5-2 1-5 1-7-1-2-2-5-4-8-6-2-1-3-3-3-5 0-2 0-4 2-6 17-20 19-23 27-38-3-14 1-17 23-35 2-2 6-1 9 0l2 2c1 0 3 0 4 0l0 0c0-1 0-2 0-3-1-6 0-8 9-20 0 0 0-1-1-1-1-1-2-3-2-5l0-5c-7 2-8 3-13 6-2 1-2 2-2 2l-12 16c-2 3-6 3-8 1-3-1-6-4-9-6-1-2-2-4-2-7 1-3 2-6 5-10-5-3-8-9-11-15-1-2 0-6 1-8l6 2-5-4c0 0 1-3 1-3l7 3-6-5c0 0 2-2 2-2 0 0 1-3 1-3l3 1c0-1 0-1-1-2l-1-1c0 0 2-2 2-2l0-2c1-2 4-3 6-3 1 0 1 0 2 0 3 1 5 3 5 6 0 7 2 8 3 8 1 1 2 2 3 3l0-1c0-2 1-3 2-5 1-1 2-2 3-3 0-2 1-4 2-5 1-2 2-3 4-3 4 0 4 0 18-22-5 0-14-1-29-2-2 0-4-2-5-4-2-1-2-4-1-6 3-6 6-12 10-19 2-4 5-9 7-13-2-2-2-5-1-7l3-10c0 0 1-3 1-3 1-2 2-3 4-4 1-1 3-1 5 0 30 10 31 11 46 18 4 1 5 5 4 9-3 5-5 11-8 17 4 6 5 12 6 18 1 5 2 9 4 13 1 0 3 1 4 1 15-16 20-21 29-21 2 0 4 1 6 1 1-2 2-4 6-8 2-3 6-4 9-2 3 2 4 6 2 9-1 2-2 4-3 6 4-3 9-7 15-12 2-2 4-2 7-1 2 1 4 3 4 5 0 2 0 4 0 5 0 0 1 0 1 0 2-2 5-2 7-1 1 0 1 1 1 1 4-8 7-16 10-23-3-2-10-5-20-9-3-1-5-4-4-7 0-3 0-5-1-10-9 5-21 15-30 25-2 2-6 3-8 1-11-6-33-18-64-27-2-1-4-3-5-5 0-1 0-3 0-4 0 0-1-1-1-1l1-7-3 7c-3-1-4-3-5-5-14-34-25-64-62-118-2-3-2-7 1-9l10-9c6-44 6-45 0-59-2-3-1-6 1-8 62-56 62-56 77-60 3-1 6 0 7 3l7 11c18 4 35 9 50 14 13 4 23 7 29 7 3 0 4-1 5-1 6-7 3-43 0-87z m-602 368c-1 2-4 4-7 4l-6 1c0 0-1-1-2-1 0 1 0 2 0 3 0 3-1 5-3 6-2 1-3 2-5 4 0 0-1 1-2 2 7 6 10 4 21 0 4-12 7-22 14-29-3-2-5-4-8-6-5-4-10-7-16-9 2 3 3 7 4 11l8 6c3 2 3 5 2 8z m83 144c8 2 17 7 27 14l2 3c1 0 1 1 2 2-13-23-14-24-21-24-1 0-2 0-3 0 0 3-3 5-5 5-1 0-1 0-2 0z m31 20c1 1 0 1 0 2 1 0 1 0 1 0 0-1 0-1-1-2z m18-11l0-1c1-3 3-5 6-5 0 0 1 0 1 0 1 0 1 0 2 0 1 0 1-1 1-1 0 0 0 0 0 0-5-3-8-4-10-5-1 4-1 8-1 12 0 4 1 9 0 13 0 2-3 5-6 6 0 0-1 0-2 0 1 1 2 2 2 2 1-1 3-2 4-2 0 0 2 0 2 0 1 0 1 0 2 0-2-4-2-9-1-19z m22-20l-3 9c0 0 0 0 0 1 0 0 0 0 0 0 0 0 1 0 3 0 4 0 8-2 9-3-6-8-10-14-14-21-2 0-3 0-4-1 2 3 5 5 8 8 2 1 2 4 1 7z m289-61l-2 5c1-1 1-1 2-2l0-3z m-457-281c2-3 1-7-1-9l-11-10c-1-1-3-2-5-2 0 0 0 0 0 0-2 0-4 1-5 3-8 10-9 11-10 11-1 0-3 0-4-1-4 0-7 2-8 6-4 16-3 22 11 26l3 0c1 1 3 1 5 0l14-8c1-1 2-2 2-3l9-13z m351 354c-19-26-48-45-63-51 0-3-1-6-3-9-2-2-4-4-9-4 0 0-1 0-1 0-7 0-11 4-15 7-1 1-3 2-5 3-2 1-4 3-5 6 0 2-1 4-2 7-2 5-4 10-4 16 0 1 1 2 1 3l2 2c2 5 4 9 6 15-2 2-3 4-5 5-1 2-1 4-1 6 1 5 1 7 1 9-1 2-3 4-4 6-3 3-5 7-8 10-3 1-7 2-9 2-1 0-3 1-4 2l-2-2c-1-2-2-3-4-3-2 0-4 0-5 1 0 1-1 1-1 1-4-3-8-5-19-8-1 0-2-1-2-1-1 0-3 1-4 1-4 3-5 3-6 3-3 1-6 4-6 8 1 3 3 6 7 6l0 0c8 0 12 2 24 11-2 4-4 7-4 11-1 2 0 4 1 6 1 2 3 2 5 2 2 0 5 1 9 2 5 1 11 3 15 2 1 1 2 1 3 1 5 2 10-3 10-4 1-1 1-1 1-1 0 0 1 1 1 1 1 0 2 0 2 0 1 2 2 4 4 5 2 2 4 2 6 1 6-3 9-4 10-4 0 0 1 0 3 0 1 0 2 0 4 0 1 0 3 0 4 0 0 1 1 2 3 4 2 1 4 2 6 2 0 0 3-1 3-1 0 2 2 3 4 4l4 1c2 1 4 1 6 0l10-5c1-1 2-2 3-3 2 1 5 1 7 0 2-1 3-3 3-6 2-4 8-17 20-29 1-1 2-2 2-3l1-2c0-2 1-5 2-6 1-3 0-6-2-8 0 0 0 0 0 0 1-1 1-3 2-4 2-2 2-5 1-7-1-1-2-2-3-3 1 0 1 0 1-1 1-2 1-5-1-7z m42-15c0 0 0-2 0-2 0-10-7-15-27-18-1 0-1 0-1 0-2 0-3 0-4 1l-3 2c-2 2-6 4-8 5-2 2-3 4-3 6 0 2 1 5 3 6 5 3 10 5 16 6 8 2 14 2 21 1 3-1 6-4 6-7z" horiz-adv-x="984" />

<glyph glyph-name="information" unicode="&#xe80b;" d="M854 704c-196 195-512 195-708 0-195-196-195-512 0-708 196-195 512-195 708 0 195 196 195 512 0 708z m-289-571c0-36-29-66-65-66-36 0-65 30-65 66l0 261c0 36 29 65 65 65 36 0 65-29 65-65l0-261z m-66 372c-38 0-63 27-62 59-1 35 24 61 63 61 38 0 62-26 63-61 0-32-25-59-64-59z" horiz-adv-x="1000" />

<glyph glyph-name="marker" unicode="&#xe80c;" d="M336 850c-185 0-336-149-336-333 0-55 14-110 40-159l277-497c4-7 11-11 19-11 7 0 14 4 18 11l277 497c26 49 40 104 40 159 0 184-150 333-335 333z m0-500c-93 0-168 75-168 167 0 92 75 166 168 166 92 0 167-74 167-166 0-92-75-167-167-167z" horiz-adv-x="671" />

<glyph glyph-name="question-mark" unicode="&#xe80d;" d="M288-117l-5 0c-65 2-111 50-109 115 2 63 49 109 112 109l4 0c67-2 112-50 110-116-2-63-48-108-112-108z m274 545c-16-22-49-49-92-82l-47-33c-25-19-41-38-47-57-4-14-6-18-7-48l0-7-178 0 0 15c2 62 4 99 30 129 40 47 129 105 133 107 13 10 23 21 31 32 19 26 27 46 27 66 0 28-8 54-24 77-16 22-45 33-88 33-43 0-72-14-90-41-18-29-27-59-27-90l0-7-184 0 0 8c5 113 45 194 120 241 47 30 105 46 173 46 89 0 165-22 224-65 60-43 90-108 90-192 0-48-15-92-44-132z" horiz-adv-x="667" />

<glyph glyph-name="plus" unicode="&#xe80e;" d="M946 420l-376 0 0 376c0 17-23 54-70 54-46 0-70-37-70-54l0-376-376 0c-17 0-54-23-54-70 0-46 37-70 54-70l376 0 0-376c0-17 24-54 70-54 47 0 70 37 70 54l0 376 376 0c17 0 54 24 54 70 0 47-37 70-54 70z" horiz-adv-x="1000" />

<glyph glyph-name="profile" unicode="&#xe80f;" d="M500 350c138 0 250 112 250 250 0 138-112 250-250 250-138 0-250-112-250-250 0-138 112-250 250-250z m0-125c-167 0-500-84-500-250l0-125 1000 0 0 125c0 166-333 250-500 250z" horiz-adv-x="1000" />

<glyph glyph-name="refresh" unicode="&#xe810;" d="M460-150c-254 0-460 203-460 453 0 250 206 453 460 453 17 0 34-1 51-2l0 73c0 9 6 18 14 21 10 4 20 2 26-5l163-161c10-9 10-23 0-33l-163-161c-6-7-16-9-26-5-8 4-14 12-14 22l0 81c-17 3-34 4-51 4-161 0-291-129-291-287 0-158 130-287 291-287 161 0 291 129 291 287 0 13 11 24 24 24l121 0c13 0 24-11 24-24 0-250-206-453-460-453z" horiz-adv-x="920" />

<glyph glyph-name="search" unicode="&#xe811;" d="M985-61l-247 248c64 72 98 164 98 259 0 223-187 404-418 404-230 0-418-181-418-404 0-222 188-403 418-403 87 0 169 25 240 73l248-250c11-10 25-16 40-16 14 0 27 5 37 15 22 20 23 53 2 74z m-567 806c171 0 309-134 309-299 0-164-138-298-309-298-170 0-309 134-309 298 0 165 139 299 309 299z" horiz-adv-x="1000" />

<glyph glyph-name="share" unicode="&#xe812;" d="M195 678l99 98 0-431c0-12 10-21 22-21 12 0 22 9 22 21l0 431 98-98c5-4 10-6 16-6 5 0 11 2 15 6 9 9 9 23 0 31l-136 135c-8 8-22 8-31 0l-136-135c-8-8-8-22 0-31 9-8 23-8 31 0z m414-91l-187 0c-13 0-23-10-23-23 0-12 10-22 23-22l164 0 0-647-540 0 0 647 164 0c12 0 22 10 22 22 0 13-10 23-22 23l-187 0c-13 0-23-10-23-23l0-692c0-12 10-22 23-22l586 0c12 0 23 10 23 22l0 692c0 13-11 23-23 23z" horiz-adv-x="632" />

<glyph glyph-name="sort" unicode="&#xe813;" d="M44 438l618 0c12 0 22 5 31 14 9 9 13 20 13 32 0 12-4 23-13 32l-309 320c-9 10-19 14-31 14-12 0-22-4-31-14l-309-320c-9-9-13-20-13-32 0-12 4-23 13-32 9-9 19-14 31-14z m618-176l-618 0c-12 0-22-5-31-14-9-9-13-20-13-32 0-12 4-23 13-32l309-320c9-10 19-14 31-14 12 0 22 4 31 14l309 320c9 9 13 20 13 32 0 12-4 23-13 32-9 9-19 14-31 14z" horiz-adv-x="706" />

<glyph glyph-name="tick-asterisk" unicode="&#xe814;" d="M558-93c225 0 410 183 410 411s-185 407-410 407-408-182-408-410 183-408 408-408z m-65 271c-5 0-10 2-15 7l-108 108c-7 7-7 22 0 30s23 7 30 0l93-93 222 223c8 7 23 7 30 0 8-8 8-23 0-30l-237-238c-3-5-10-7-15-7z m-268 452c-2-5-7-10-15-10-2 0-5 0-7 3l-48 27v-55c0-10-7-15-15-15s-15 8-15 15v55l-47-27c-3 0-8-3-10-3-5 0-10 5-13 10-5 8-2 18 5 20l48 28-48 27c-7 5-10 15-5 23s15 10 23 5l47-28v55c0 10 8 15 15 15s15-7 15-15v-55l48 28c7 5 17 2 22-5s3-18-5-23l-47-27 47-28c8-2 10-12 5-20z" horiz-adv-x="1000" />

<glyph glyph-name="tick" unicode="&#xe815;" d="M15 300c-10 10-15 25-15 35 0 10 5 25 15 35l70 70c20 20 49 20 69 0l5-5 274-295c10-10 25-10 35 0l667 695 5 0c20 20 50 20 70 0l69-70c20-20 20-50 0-70l-796-830c-10-10-20-15-35-15-15 0-25 5-35 15l-388 420-10 15z" horiz-adv-x="1294" />

<glyph glyph-name="penguin" unicode="&#xe816;" d="M230 674c4 1 8 4 10 5 33 11 66 16 100 15 5 0 9 1 13 5 15 19 33 30 57 32 16 2 31 2 46-1 32-6 55-25 67-55 8-25 16-50 23-75 3-10 7-19 14-26 20-20 30-48 38-74 16-52 23-106 30-161 7-56 6-114 8-171 2-20 2-40 4-60 4-25 16-45 39-59 24-14 46-29 69-44 5-4 10-8 13-13 7-6 4-12-3-16-9-4-19-6-29-7-34-4-68 1-101 5-24 2-47 5-70 6-9 0-19-1-28-3-10-1-19-2-27 0-4 2-8 3-12 3-16 5-31 2-45-6-10-8-20-7-31-4-11 4-22 5-35 5-17 0-36-1-54-3-18-1-23 7-20 24 0 0 0 0 0 0 5 10 7 19-6 25-5 3-6 9-2 14 3 8 8 16 13 24 7 11 15 21 17 35 0 5 0 10-2 15-10 42-21 84-32 126-6 25-8 51-6 76 1 38 12 73 22 108 11 41 25 82 36 124 4 13 8 28 10 42 2 4 0 9-2 13-4 8-9 16-14 23-19 28-45 43-79 42-6 0-12 0-20 1-3 0-7 1-11 2 0 8 0 8 0 8z" horiz-adv-x="1000" />

<glyph glyph-name="bear" unicode="&#xe817;" d="M975 591c14 4 28 24 41 7 14-18 17-28 17-28s17-12 28-16c13-5 27-14 34-19 8-6 9-17 10-22 1-5 16-13 25-17 9-3 18-8 28-13 10-5 12-7 18-8 8-1 2-15-3-20-7-4-7-7-5-14 2-5-3-13-12-15-8-2-17-6-17-6l12-7c0 0-5-7-16-10-10-4-41-5-52-10-10-5-25-20-25-20s-5 6-9 6c-5 0-16-5-16-5l-9 5c0 0-26 0-35-5-9-5-29-19-29-19l-6 8-13-12c0 0-6 5-10 5-3 0-7-5-8-5l0 0 0 0c-8 7-14 4-19 0-4-3-9-11-9-17 0-19 13-30 15-44l5-25 21-42 20-48c0 0 25-34 34-37 9-4 31-24 31-24s8 0 15 1c8 1 23 1 23 1s-5-3 4-5c8-1 16-12 20-17 3-5 1-11 1-11l-8 3c0 0-8 3-15 0-6-2-13-3-27-6-13-2-30-7-41-5-12 3-32 10-32 10l-11-5-10 19-6-8-9-6-22 13c0 0 7-13-3-7-10 7-41 54-41 54s-3-14-13-2c-8 10-27 57-27 57l-6-4-7 18-13-6-22 55-8-8c0 0-24-11-37-21-12-9-35-14-42-20-8-8-9-29-18-36-7-8-11-32-17-48-8-15-3-51 6-60 9-9 18-4 28-2 11 1 23-2 23-2s4-6 15-12c12-6 13-18 13-18l-15 5c0 0-16-3-25-7-8-3-40-6-60 0-21 6-34 7-41 9-8 1-20 13-20 18 0 5 0 2 0 3-2 0-3 2-3 4 0 1-1 5-1 10-3 10-6 18-6 18s-5 25-12 42c-6 15-5 37-1 53 3 15 10 47 15 69l5 16-4-1c-12-4-21-10-28-20l-3 3-5-8c-1-2-4-6-5-9l-12 7-10-14-10 2-5-10-2 0c-1 4-2 5-2 5s-3-1-5-2l-5 1 0-4c-13-7-6-7-13-11-2-1-5-2-7-4 1-6 2-13 2-20 0-5 0-8 0-12 5-26 3-73 3-89 0-5 2-11 7-14 5-3 30-8 30-8s14-7 18-10c2-3 9-15 9-24l-12 6c0 0-13 3-18 0-4-2-14-6-27-5-12 1-21 1-31 3-9 0-22 0-36 0-14-2-26 0-31 5-5 5-2 18-2 22 0 25-8 33-17 38-5 2 5 21-11 10-5 5-5 25-8 33 14 10-7 15-12 19-5 3-17 6-29 0-5-2-9-7-10-12-5-5-13-13-15-14-3-1-8-6-9-14-5-1-9-7-9-7l-18-13c0 0-12-9-19-10-8-1-15-7-16-14-2-5 6-15 17-21 14-7 21-20 23-35 0 0-9 5-14 6-9-5-18-5-28-3l-55 2c0 0-13 13-23 29-10 16-13 32-17 47-3 15-8 22-6 28-2 9 23 30 25 32 3 4 6 10 8 20 1 15 8 32 12 49 1 9 11 19 0 29 0 0 5 21 3 34-3 12-7 18-7 18s2 42 2 49c0 8-27 40-4 89 11 25 17 37 24 46 11 16 18 33 30 48 8 11 20 21 30 31 16 15 35 29 53 35 23 7 65 30 140 22 75-7 119-13 142-12 22 1 78 12 95 20 16 7 51 12 78 5 28-6 53-21 70-28 19-6 55-21 68-21 12 0 19-1 34-5 15-5 28-6 32-5 4 3 15 4 25 3 10-2 16-4 16-4l9 2z" horiz-adv-x="1250" />

<glyph glyph-name="bird" unicode="&#xe818;" d="M1104 473c-11 7-21 11-30 15-40 18-83 31-123 46-6 11-13 19-21 27-20 22-47 39-77 40-25 0-47-2-73-15-30-13-52-35-79-48-41 42-148 150-288 215-9 3-70 37-25-17 3-3 45-50 55-55-5 2-10 2-14 0-1 0-3-2-4-2 0 0 0-1 0-1-1-4 3-9 6-14 7-11 15-20 24-28 1-1 4-3 5-5 0 0 31-27 33-27-5 1-15-1-20-5 0 0-68 34-183 62-26 7-50 12-79 17-13 2-23 3-42 5-23 1-26-4-25-10 0 0 2-12 26-24 18-10 36-19 55-29-5-1-4-6-1-9 9-10 19-15 27-20 4-1 13-5 13-5-10-1-21-3-23-11-1-9 14-20 20-26 5-4 20-15 28-19-4-1-10 0-14-6-1-14 10-19 18-24 23-20 52-27 82-36 3-1 8 0 9-4-14 1-25-6-33-11-20-14 8-28 19-34 5-2 26-10 30-11 0 0 0 0 0 0-7-4-15-9-14-16 2-5 12-13 18-14 9-3 22-5 25-5 2-13 12-16 21-20 20-10 45-15 69-15 0 0 31-1 36 0-32-89-29-156-19-215 9-46 23-98 40-139 9-19 18-40 30-56 8-9 17-18 28-15 2 1 4 2 6 5 3 3 4 10 5 15 1 8-1 17-4 26 0 0 0 0 0 0 8-4 12-5 15-3 4 4 5 9 4 15-2 14-7 27-10 34 0 0 15-44 33-34 16 9-3 48-3 48 10-6 33-18 28 5-3 11-10 21-13 31 6 4 8 9 6 18-6 41-46 104-46 105 84 44 160 167 179 204 4 7 24 56 27 61 4 5 22 21 27 25 10 9 17 16 27 26 4 4 10 11 14 14 9 4 24 2 34 1 35-1 58-7 88-15 19-5 33-10 47-16 10-4 27-16 30-16-2 0-13 7-24 15z" horiz-adv-x="1250" />

<glyph glyph-name="butterfly" unicode="&#xe819;" d="M165 151c1-2 1-5 3-7l1-6c0-15 10-24 19-32 3-2 7-6 10-8 35-40 81-63 138-67l2-1 2 0 30-11c3-3 5-3 9-1 0 0 1 0 1 0 0 0 1 0 1 0 12-3 23-4 35-4 14 0 28 1 40 2 7 0 12 2 17 2l33 0 4 2c24 3 45 11 66 19 12 5 23 9 34 12 1 0 3 0 3-1 6-6 1-32-2-51-2-15-3-23-2-27l0-1 1 0c16 4 19 75 19 77 0 7 6 10 20 10 5 0 10 0 16-2 5 0 10-1 14-1 5 0 7 0 10 1 4 2 7 4 10 7 5 3 9 6 14 5 1 0 2-2 2-2 1-2 0-7-1-11-1-2-1-5-1-6-2-21 7-53 21-70l2-3 2 4c5 11-3 33-5 38 0 16-3 30-5 45l0 1c0 1 0 2 0 4-2 8-2 21-10 21-3 0-8-3-10-5-2-1-2-3-2-4-1 0-2 1-3 1 0 0-2 2-3 2 8 12 15 22 33 22 10 0 16 8 22 15 1 3 4 4 5 6 5 4 5 10 5 15 0 2 0 3 0 4 14 4 84 29 115 43l-1 3c-43-10-103-30-120-36l-1 0 0-1 0 0c-2 0-2 0-3 0l-17 0c-2 1-2 2-3 2-1 3-4 5-7 5-2 0-4-1-5-2-4-3-5-3-9 1-3 3-3 5 0 8 1 1 1 1 1 2 15 25 29 51 34 83 5 7 4 16 4 25 2 13 2 26 0 38l0 19c-2 61-3 111-15 163 0 10-3 18-7 27-2 8-5 15-6 23l0 1c-1 2-1 5-2 6-2 5-3 9-7 14l0 0 0 0 0 1c0 1-1 3-1 4-1 5-2 10-1 15 0 9-5 15-14 19-21 43-56 77-84 101l-1 0c-4 4-9 7-15 7-4 3-7 5-11 5-4 0-6-1-10-1-1 0-3 0-4-1l-1 0 0-1c0 0 0 0 0 0 0 0-1 0-3 0-11 0-16-8-21-15-21-24-35-53-47-80-4-9-9-19-14-28-3-6-8-11-13-16-6-6-11-13-15-21-5-14-15-27-30-39-13-11-22-29-30-45-2-6-6-13-10-19-13-22-32-30-53-37-4-2-9-3-13-4-20-6-40-14-49-39 0-1-3-4-6-5-1-1-4-2-5-2-16-9-32-19-40-40-4-12-14-18-25-23-4-2-9-5-12-7-17-12-33-25-29-52 2-13-6-25-15-36l0 0c-6-7-6-15 0-21 12-10 17-24 21-38z" horiz-adv-x="1000" />

<glyph glyph-name="dolphin" unicode="&#xe81a;" d="M1034 166c12 4 25 8 44 13-15 9-27 17-38 21-121 38-244 66-371 74-86 5-168-19-248-44-5-1-10-4-15-5-48-11-91-29-107-85-8-24-30-42-49-62 8 47-34 56-56 76-28 25-60 14-91-3-2 3-3 4-4 7 6 8 10 20 17 27 40 45 89 76 150 85 22 3 37 11 52 29 51 62 117 104 197 124 101 23 203 47 303 71 13 4 27 7 40 12 28 14 40 37 35 67-3 12-5 26-9 38-4 13-9 25-14 38 21 9 38 0 53-9 50-31 88-74 117-125 15-26 34-41 63-51 127-43 242-109 343-196 25-22 49-47 67-75 11-19 11-45 16-69 2-11 6-23 10-34 1-2 5-5 5-7 1-14 1-28 1-42-11 0-25-3-35 2-61 27-121 56-182 85-8 3-14 6-22 10-26 13-50 16-78 2-52-25-107-25-159-4-13 5-23 15-34 23-2 2-2 5-1 7z" horiz-adv-x="1625" />

<glyph glyph-name="loading" unicode="&#xe81b;" d="M88 264c-49 0-88 40-88 88s39 88 88 88c48 0 88-40 88-88s-40-88-88-88z m375 391c-54 0-98 44-98 97 0 54 44 98 98 98 54 0 98-44 98-98 0-53-44-97-98-97z m0 117c-11 0-20-9-20-20 0-10 9-19 20-19 11 0 19 9 19 19 0 11-8 20-19 20z m-267-238c-25 0-49 9-67 27-18 18-27 42-27 67 0 26 9 49 27 67 18 18 42 28 67 28 26 0 49-10 67-28h0 0c18-18 28-41 28-67 0-25-10-49-28-67-18-18-41-27-67-27z m0 111c-2 0-7-1-11-5-5-4-5-9-5-12s0-7 5-11c4-5 9-5 11-5 3 0 8 0 12 5 4 4 5 9 5 11s-1 8-5 12h0c-4 4-9 5-12 5z m551-115c-29 0-56 11-77 31-20 21-31 48-31 77 0 29 11 56 31 77 21 20 48 32 77 32s56-12 77-32c20-21 32-48 32-77 0-29-12-56-32-77-21-20-48-31-77-31z m0 138c-8 0-16-3-21-8-6-6-9-14-9-22s3-16 9-21c5-6 13-9 21-9s16 3 22 9c5 5 8 13 8 21s-3 16-8 22c-6 5-14 8-22 8z m126-441c-32 0-65 12-90 37-49 50-49 130 0 180 50 49 130 49 180 0s49-130 0-180c-25-25-57-37-90-37z m0 176c-12 0-25-5-34-15-19-19-19-50 0-69 19-19 50-19 69 0 19 19 19 50 0 69-10 10-22 15-35 15z m-125-500c-34 0-69 13-95 39-53 53-53 138 0 191 52 52 138 52 190 0 53-53 53-138 0-191-26-26-60-39-95-39z m0 191c-14 0-29-5-40-16-22-23-22-58 0-81 22-22 58-22 80 0 22 23 22 58 0 81-11 11-25 16-40 16z m-567-101c-22 0-44 8-60 24-33 34-33 88 0 121 33 33 87 33 120 0 33-33 33-87 0-121-17-16-39-24-60-24z m229-143c-15 0-30 6-41 17-23 23-23 60 0 83l0 0c23 23 60 23 83 0 22-23 22-60 0-83-12-11-27-17-42-17z m0 0" horiz-adv-x="1000" />

<glyph glyph-name="chevron-left" unicode="&#xe81c;" d="M285 350l395 405 40-40-370-365 365-365-35-35-395 400z" horiz-adv-x="1000" />

<glyph glyph-name="chevron-right" unicode="&#xe81d;" d="M720 350l-395-405-40 40 365 365-365 365 35 35 400-400z" horiz-adv-x="1000" />

<glyph glyph-name="chevron-up" unicode="&#xe81e;" d="M500 565l405-395-40-40-365 370-365-365-35 35 400 395z" horiz-adv-x="1000" />

<glyph glyph-name="chevron-down" unicode="&#xe81f;" d="M500 130l-405 395 40 40 365-365 365 365 35-35-400-400z" horiz-adv-x="1000" />

<glyph glyph-name="minus" unicode="&#xe820;" d="M358 282h589c16 0 53 21 53 68 0 47-37 68-53 68h-589m74 0h-379c-16 0-53-21-53-68 0-47 37-68 53-68h373" horiz-adv-x="1000" />

<glyph glyph-name="spinner-of-dots" unicode="&#xe821;" d="M240 140c-25 0-46-9-64-26-17-18-26-39-26-64 0-25 9-46 26-64 18-17 39-26 64-26 25 0 46 9 63 26 18 18 27 39 27 64 0 25-9 46-27 64-17 17-38 26-63 26z m-20 190c0 28-10 51-29 71-20 19-43 29-71 29-27 0-51-10-71-29-19-20-29-43-29-71 0-27 10-51 29-71 20-19 44-29 71-29 28 0 51 10 71 29 19 20 29 44 29 71z m580 230c14 0 26 5 35 15 10 10 15 21 15 35 0 14-5 26-15 35-9 10-21 15-35 15-14 0-25-5-35-15-10-9-15-21-15-35s5-25 15-35c10-10 21-15 35-15z m-560 160c-30 0-56-11-78-32-21-22-32-48-32-78 0-30 11-56 32-78 22-21 48-32 78-32s56 11 78 32c21 22 32 48 32 78 0 30-11 56-32 78-22 21-48 32-78 32z m723-347c-12 11-26 17-43 17-17 0-31-6-42-17-12-12-18-26-18-43 0-17 6-31 18-42 11-12 25-18 42-18 17 0 31 6 43 18 11 11 17 25 17 42 0 17-6 31-17 43z m-163-253c-19 0-36-7-49-21-14-13-21-30-21-49 0-19 7-36 21-49 13-14 30-21 49-21 19 0 36 7 49 21 14 13 21 30 21 49 0 19-7 36-21 49-13 14-30 21-49 21z m-280-110c-22 0-41-8-57-23-15-16-23-35-23-57s8-41 23-57c16-15 35-23 57-23 22 0 41 8 57 23 15 16 23 35 23 57s-8 41-23 57-35 23-57 23z m0 840c-33 0-62-12-85-35-23-23-35-52-35-85 0-33 12-62 35-85 23-23 52-35 85-35 33 0 62 12 85 35 23 23 35 52 35 85 0 33-12 62-35 85-23 23-52 35-85 35z" horiz-adv-x="1000" />
</font>
</defs>
</svg>
